<svg width="30" height="30" viewBox="0 0 30 30" fill="none" xmlns="http://www.w3.org/2000/svg">
<path d="M15 0C6.729 0 0 6.72909 0 15.0001C0 23.2711 6.729 30 15 30C23.271 30 30 23.2711 30 15.0001C30 6.72909 23.271 0 15 0ZM15 27.2727C8.23273 27.2727 2.72727 21.7673 2.72727 15.0001C2.72727 8.23291 8.23273 2.72727 15 2.72727C21.7673 2.72727 27.2727 8.23291 27.2727 15.0001C27.2727 21.7673 21.7672 27.2727 15 27.2727Z" fill="#5BA2E3"/>
<path d="M14.9999 6.36365C13.9976 6.36365 13.1821 7.17965 13.1821 8.18265C13.1821 9.18474 13.9976 10 14.9999 10C16.0023 10 16.8178 9.18474 16.8178 8.18265C16.8178 7.17965 16.0023 6.36365 14.9999 6.36365Z" fill="#5BA2E3"/>
<path d="M14.9999 12.7273C14.2468 12.7273 13.6362 13.3378 13.6362 14.0909V22.2728C13.6362 23.0258 14.2468 23.6364 14.9999 23.6364C15.753 23.6364 16.3635 23.0258 16.3635 22.2728V14.0909C16.3635 13.3378 15.753 12.7273 14.9999 12.7273Z" fill="#5BA2E3"/>
</svg>
