 <svg>
 <symbol id="boncompare-icon" xmlns="http://www.w3.org/2000/svg" width="53.85" height="35" viewBox="0 0 2367 1539">
  <defs>
    <style>
      .cls-1 {
        fill: none;
        stroke: red;
        stroke-linecap: round;
        stroke-linejoin: round;
        stroke-width: 97.458px;
        fill-rule: evenodd;
      }
    </style>
  </defs>
  <path  class="cls-1" d="M979.2,1024c0,257.01-207.157,465.36-462.7,465.36S53.8,1281.01,53.8,1024M1388.97,899.97c0,256.85,207.08,465.07,462.53,465.07s462.53-208.22,462.53-465.07M55,1009.21c305.7,9.57,617.692,12.22,919.544,1.48C827.665,763.6,662.5,492.464,503.136,229.005,352.344,490.557,198.014,756,55,1009.21h0ZM2314,891.547c-305.85,9.58-618.01,12.231-920.01,1.488,146.95-247.2,312.2-518.457,471.65-782.03C2016.5,372.671,2170.91,638.227,2314,891.547h0ZM1185.72,58.313c63.51,0,115,49.781,115,111.188s-51.49,111.188-115,111.188-115-49.781-115-111.188S1122.21,58.313,1185.72,58.313ZM1060.88,170.736l-0.06-.994-552.7,52.522,0.062,0.994Zm793-80-0.06-.994-552.7,52.522,0.06,0.994Z"/>
</symbol>
 </svg>